<svg xmlns="http://www.w3.org/2000/svg" viewBox="0 0 64 64" role="img" aria-label="Site RAG favicon">
  <defs>
    <radialGradient id="favicon-glow" cx="50%" cy="35%" r="65%">
      <stop offset="0%" stop-color="#fde68a" />
      <stop offset="60%" stop-color="#fbbf24" />
      <stop offset="100%" stop-color="#ea580c" />
    </radialGradient>
  </defs>
  <rect width="64" height="64" rx="20" fill="#090402" />
  <circle cx="32" cy="32" r="26" fill="url(#favicon-glow)" />
  <path d="M21 27c0-6 4-11 11-11s11 5 11 11v9c0 3.314-2.686 6-6 6H27c-3.866 0-7-3.134-7-7z" fill="#090402" opacity="0.25" />
  <path d="M21 30c0-5.523 4.477-10 10-10s10 4.477 10 10v7c0 2.761-2.239 5-5 5H26c-2.761 0-5-2.239-5-5z" fill="#0b0502" />
  <circle cx="31" cy="32" r="4" fill="#fef9c3" />
</svg>
