<svg xmlns="http://www.w3.org/2000/svg" viewBox="0 0 220 64" role="img" aria-labelledby="logoTitle logoDesc">
  <title id="logoTitle">Site RAG Chatbot</title>
  <desc id="logoDesc">Amber minimal logotype</desc>
  <defs>
    <linearGradient id="amber-glow" x1="0%" y1="0%" x2="100%" y2="100%">
      <stop offset="0%" stop-color="#fcd34d" />
      <stop offset="45%" stop-color="#f59e0b" />
      <stop offset="100%" stop-color="#ea580c" />
    </linearGradient>
    <linearGradient id="amber-sheen" x1="0%" y1="0%" x2="0%" y2="100%">
      <stop offset="0%" stop-color="#fff7ed" stop-opacity="0.9" />
      <stop offset="100%" stop-color="#fff7ed" stop-opacity="0" />
    </linearGradient>
  </defs>
  <rect width="220" height="64" rx="22" fill="#0b0502" />
  <rect width="220" height="64" rx="22" fill="url(#amber-sheen)" opacity="0.2" />
  <g transform="translate(28 16)">
    <path d="M0 16C0 7.163 7.163 0 16 0h24c8.837 0 16 7.163 16 16s-7.163 16-16 16H16C7.163 32 0 24.837 0 16Z" fill="url(#amber-glow)" />
    <path d="M24 9c-3.866 0-7 3.134-7 7v6.5c0 1.933 1.567 3.5 3.5 3.5h14c3.59 0 6.5-2.91 6.5-6.5S38.09 13 34.5 13H31" stroke="#0b0502" stroke-width="2" stroke-linecap="round" stroke-linejoin="round" fill="none" />
    <circle cx="24" cy="16" r="3" fill="#0b0502" />
  </g>
  <text x="108" y="39" font-family="'Space Grotesk', 'Inter', system-ui, sans-serif" font-size="22" font-weight="600" letter-spacing="0.04em" text-anchor="middle" fill="#fffaf0">
    SITE RAG CHATBOT
  </text>
</svg>
